<?xml version="1.0" encoding="UTF-8"?>
<svg width="240" height="240" version="1.1" viewBox="0 0 240 240" xmlns="http://www.w3.org/2000/svg">
 <defs>
  <style>.cls-1 {
        fill: url(#b);
      }

      .cls-2 {
        fill: url(#a);
      }

      .cls-3 {
        fill: url(#c);
      }

      .cls-4 {
        fill: url(#d);
      }

      .cls-5 {
        fill: #007dff;
      }</style>
  <linearGradient id="a" x1="50.8" x2="115" y1="196.2" y2="196.2" data-name="Gradiente sem nome 84" gradientUnits="userSpaceOnUse">
   <stop stop-color="#007dff" offset="0"/>
   <stop stop-color="#002269" offset="1"/>
  </linearGradient>
  <linearGradient id="c" x1="50.1" x2="220.6" y1="111.9" y2="111.9" data-name="Gradiente sem nome 77" gradientUnits="userSpaceOnUse">
   <stop stop-color="#007dff" offset="0"/>
   <stop stop-color="#2692c7" offset=".2"/>
   <stop stop-color="#47a596" offset=".3"/>
   <stop stop-color="#63b56e" offset=".5"/>
   <stop stop-color="#79c24f" offset=".6"/>
   <stop stop-color="#88ca39" offset=".7"/>
   <stop stop-color="#91d02b" offset=".9"/>
   <stop stop-color="#95d227" offset="1"/>
  </linearGradient>
  <linearGradient id="d" x1="50.1" x2="217.8" y1="73.2" y2="73.2" data-name="Gradiente sem nome 75" gradientUnits="userSpaceOnUse">
   <stop stop-color="#007dff" offset="0"/>
   <stop stop-color="#002269" offset="1"/>
  </linearGradient>
  <linearGradient id="b" x1="50.1" x2="207.6" y1="167" y2="167" data-name="Gradiente sem nome 81" gradientUnits="userSpaceOnUse">
   <stop stop-color="#007dff" offset="0"/>
   <stop stop-color="#95d227" offset="1"/>
  </linearGradient>
 </defs>
 <g>
  <g>
   <g>
    <g transform="matrix(1.1498 0 0 1.1498 -35.488 -31.538)">
     <path class="cls-2" d="m68 184.2c-9.5 7.1-12.7 17.3-15.3 25.4-0.7 2.1-1.3 4.1-2 5.9 7-0.5 13.8-1.8 20-3.8 21-6.9 34.7-21.8 44.3-34.8h-4.5-8.8c-13 0-25 1-33.7 7.5z" fill="url(#a)"/>
     <path class="cls-3" d="m220.4 106c0-0.5 0-1-0.1-1.4v-0.8-0.1-0.6c-0.2-1.5-0.7-5.2-1.8-9.1-10.2 4.4-20.6 6.8-31.1 7.1h-0.1-0.8c-10.6 0-30-6-44.2-10.3-2.6-0.8-5-1.5-7.2-2.2l-1.2-0.3c-0.8-0.2-1.7-0.5-2.6-0.8-2.1-0.6-4.2-1.3-6.5-2h-0.3c-6.1-2-12.9-4.2-19.9-6-8.9-2.3-16.2-3.4-22.1-3.4-15.3 0-26.3 7.5-32.5 12v46.6c6.5-4.5 17.5-11 32.5-11s30 5.2 43.3 9.5c3.3 1 6.4 2 9.3 2.9 2.2 0.6 4.5 1.4 7 2.1 13.9 4.3 31.1 9.6 46 9.6 11.3 0 18.9-1 22.4-2.8 7.4-11.8 10.8-25.2 9.8-38.9z" fill="url(#c)"/>
     <path class="cls-4" d="m81 48.2c-19.9 0-30.9 17.3-30.9 29.3v6.6c5.4-3.7 17.3-11 33.8-11s13.9 1.1 23.2 3.5c7.1 1.8 14.1 4 20.2 5.9l0.7 0.2c2.1 0.7 4.2 1.3 6.1 1.9 0.9 0.3 1.7 0.5 2.6 0.8l1.2 0.3c1.6 0.5 3.3 1 5.1 1.5l5.5 1.7c13.3 4.1 29.9 9.2 39.2 9.2 9.7-0.2 19.8-2.4 30.1-6.7-8.4-22.7-21.4-36.2-38.8-40.1h-0.1c-7.1-2.1-26.4-3.2-34.3-3.2h-63.6z" fill="url(#d)"/>
     <path class="cls-1" d="m66.2 182.4c12-8.8 28.3-8.5 45.6-8.2h8.9 12 22.6c5.9 0 11.9-0.8 17.6-2.3 1.6-0.4 2.9-0.8 4.2-1.3 6.8-2.3 13.1-5.6 18.7-9.9 4.4-3.3 8.3-7.1 11.8-11.3-4.5 0.9-10.5 1.3-18.3 1.3-15.8 0-33.5-5.4-47.7-9.7-2.5-0.8-4.9-1.5-7.1-2.1-2.9-0.9-6.1-1.8-9.4-2.9-13.1-4.1-29.4-9.3-42.3-9.3s-26.5 7.6-32.7 12v68.5c2.6-8 6.5-17.8 16.1-24.9z" fill="url(#b)"/>
    </g>
   </g>
  </g>
 </g>
</svg>
