<?xml version="1.0" encoding="UTF-8"?>
<svg width="1280" height="172" version="1.1" viewBox="0 0 1280 172" xmlns="http://www.w3.org/2000/svg">
 <defs>
  <style>.cls-1 {
        fill: url(#b);
      }

      .cls-2 {
        fill: url(#a);
      }

      .cls-3 {
        fill: url(#c);
      }

      .cls-4 {
        fill: url(#d);
      }

      .cls-5 {
        fill: #007dff;
      }</style>
  <linearGradient id="a" x1="50.8" x2="115" y1="196.2" y2="196.2" data-name="Gradiente sem nome 84" gradientUnits="userSpaceOnUse">
   <stop stop-color="#007dff" offset="0"/>
   <stop stop-color="#002269" offset="1"/>
  </linearGradient>
  <linearGradient id="c" x1="50.1" x2="220.6" y1="111.9" y2="111.9" data-name="Gradiente sem nome 77" gradientUnits="userSpaceOnUse">
   <stop stop-color="#007dff" offset="0"/>
   <stop stop-color="#2692c7" offset=".2"/>
   <stop stop-color="#47a596" offset=".3"/>
   <stop stop-color="#63b56e" offset=".5"/>
   <stop stop-color="#79c24f" offset=".6"/>
   <stop stop-color="#88ca39" offset=".7"/>
   <stop stop-color="#91d02b" offset=".9"/>
   <stop stop-color="#95d227" offset="1"/>
  </linearGradient>
  <linearGradient id="d" x1="50.1" x2="217.8" y1="73.2" y2="73.2" data-name="Gradiente sem nome 75" gradientUnits="userSpaceOnUse">
   <stop stop-color="#007dff" offset="0"/>
   <stop stop-color="#002269" offset="1"/>
  </linearGradient>
  <linearGradient id="b" x1="50.1" x2="207.6" y1="167" y2="167" data-name="Gradiente sem nome 81" gradientUnits="userSpaceOnUse">
   <stop stop-color="#007dff" offset="0"/>
   <stop stop-color="#95d227" offset="1"/>
  </linearGradient>
 </defs>
 <g transform="matrix(1.0111 0 0 1.0112 -50.557 -45.907)">
  <g>
   <g>
    <g>
     <path class="cls-5" d="m347.9 73.7c-10.5 0-20.4 3.1-28.7 8.5-1.9 1.3-4.5 0-4.6-2.2v-1.8c-0.2-1.6-1.4-2.8-3-2.8h-12.5c-1.6 0-2.9 1.3-2.9 2.9v125.5c0 1.6 1.3 2.9 2.9 2.9h13.8c1.6 0 2.9-1.3 2.9-2.9v-31.2c0-2.3 2.5-3.7 4.5-2.4 8 5 17.4 7.8 27.4 7.8 29.1 0 51.1-22.4 51.1-52.1s-22-52.1-51.1-52.1zm-0.2 19.5c18.4 0 31.7 13.7 31.7 32.6s-13.3 32.6-31.7 32.6-31.8-14-31.8-32.6 13.7-32.6 31.8-32.6z"/>
     <path class="cls-5" d="m486.1 79.5c0 2.3-2.6 3.6-4.5 2.3-8.1-5.2-17.8-8.1-28.3-8.1-29.2 0-51.3 22.4-51.3 52.1s22 52.1 51.3 52.1 20.2-2.8 28.2-8c1.9-1.2 4.5 0 4.5 2.3v1.2c0 1.6 1.4 2.8 2.9 2.8h13.1c1.6 0 2.9-1.3 2.9-2.9v-95c0-1.6-1.3-2.9-2.9-2.9h-12.9c-1.6 0-2.9 1.2-2.9 2.8v1.3zm-32.6 78.9c-18.2 0-31.8-14-31.8-32.6s13.7-32.6 31.8-32.6 31.7 13.7 31.7 32.6-13.3 32.6-31.7 32.6z"/>
     <path class="cls-5" d="m601.3 75.4h-16.7c-0.9 0-1.8 0.4-2.3 1.2l-21 28.1c-1.2 1.6-3.5 1.6-4.7 0l-20.9-28.1c-0.5-0.7-1.4-1.2-2.3-1.2h-16.8c-2.4 0-3.8 2.7-2.3 4.6l31.1 41.9c0.8 1 0.8 2.4 0 3.5l-34.4 46.2c-1.4 1.9 0 4.6 2.3 4.6h16.7c0.9 0 1.8-0.4 2.3-1.2l24.2-32.5c1.2-1.6 3.5-1.6 4.7 0l24.2 32.5c0.5 0.7 1.4 1.2 2.3 1.2h16.8c2.4 0 3.8-2.7 2.3-4.6l-34.5-46.2c-0.8-1-0.8-2.4 0-3.5l31.2-41.8c1.4-1.9 0-4.6-2.3-4.6z"/>
     <path class="cls-5" d="m690.8 87.4c0 2.5-2.9 3.8-4.8 2.2-8.3-7.4-19.2-11.5-31.3-11.5-26.7 0-46.9 20.5-46.9 47.7s20.2 47.7 46.9 47.7 23.6-4.3 31.9-12.1c1.8-1.7 4.8-0.4 4.8 2l0.2 5.5c0 1.6 1.3 2.8 2.9 2.8h4.3c1.6 0 2.9-1.3 2.9-2.9v-116.6c0-1.6-1.3-2.9-2.9-2.9h-5.1c-1.6 0-2.9 1.3-2.9 2.9zm-35.8 75.3c-20.6 0-36.2-15.9-36.2-36.9s15.5-36.9 36.2-36.9 36.1 15.5 36.1 36.9-15.2 36.9-36.1 36.9z"/>
     <path class="cls-5" d="m834.2 76.1c0-15.9 4.6-20.5 20.7-20.5h7.2c1.6 0 2.9-1.3 2.9-2.9v-4.4c0-1.6-1.3-2.9-2.9-2.9h-7.9c-21.9 0-30.8 8.9-30.8 30.6v3.9h-15.8c-1.6 0-2.9 1.3-2.9 2.9v4.5c0 1.6 1.3 2.9 2.9 2.9h12.9c1.6 0 2.9 1.3 2.9 2.9v75.8c0 1.6 1.3 2.9 2.9 2.9h5.1c1.6 0 2.9-1.3 2.9-2.9v-75.8c0-1.6 1.3-2.9 2.9-2.9h24.9c1.6 0 2.9-1.3 2.9-2.9v-4.5c0-1.6-1.3-2.9-2.9-2.9h-27.9z"/>
     <path class="cls-5" d="m1006.9 78.1c-10 0-19.6 3.8-26.8 10.3-1.8 1.6-4.7 0.4-4.8-2l-0.2-3.8c0-1.6-1.3-2.8-2.9-2.8h-4c-1.6 0-2.9 1.3-2.9 2.9v86.3c0 1.6 1.3 2.9 2.9 2.9h5.1c1.6 0 2.9-1.3 2.9-2.9v-50.3c0-16.3 13.6-30 29.8-30s26.8 11.2 26.8 30.1v50.2c0 1.6 1.3 2.9 2.9 2.9h5.1c1.6 0 2.9-1.3 2.9-2.9v-51c0-24.2-14.4-39.8-36.7-39.8z"/>
     <path class="cls-5" d="m1138.5 87.4c0 2.5-2.9 3.8-4.8 2.2-8.3-7.4-19.2-11.5-31.3-11.5-26.7 0-46.9 20.5-46.9 47.7s20.2 47.7 46.9 47.7 23.6-4.3 31.9-12.1c1.8-1.7 4.8-0.4 4.8 2l0.2 5.5c0 1.6 1.3 2.8 2.9 2.8h4.3c1.6 0 2.9-1.3 2.9-2.9v-116.6c0-1.6-1.3-2.9-2.9-2.9h-5.1c-1.6 0-2.9 1.3-2.9 2.9zm-35.9 75.3c-20.6 0-36.2-15.9-36.2-36.9s15.5-36.9 36.2-36.9 36.1 15.5 36.1 36.9-15.2 36.9-36.1 36.9z"/>
     <path class="cls-5" d="m1305.6 79.5c-9.2 0-17.4 2.9-23.7 8.3-1.8 1.6-4.7 0.3-4.8-2.1v-3.2c-0.2-1.6-1.5-2.8-3-2.8h-4c-1.6 0-2.9 1.3-2.9 2.9v86.3c0 1.6 1.3 2.9 2.9 2.9h5.1c1.6 0 2.9-1.3 2.9-2.9v-48.6c0-17.7 11.2-30.1 27.2-30.1h7.7c1.6 0 2.9-1.3 2.9-2.9v-4.9c0-1.6-1.3-2.9-2.9-2.9z"/>
     <path class="cls-5" d="m798.5 141.4c-1.1 0-2.3 0.2-3.3 0.7l-2.1 3.8c-6.6 12.7-17.8 16.8-31.7 16.8s-31.3-11.8-34.6-28.9c-0.3-1.8 1-3.5 2.9-3.5h69c5.5-0.2 7.8-2.8 8-5.6-0.2-26.6-19.6-46.6-45.3-46.6s-46.2 20.5-46.2 47.6 19.8 47.8 46.2 47.8 33.7-9.9 42.3-27.9c-0.5-2.4-2.7-4.2-5.2-4.2zm-71.3-25.4c3.8-16.3 17.1-27.2 34.2-27.2s25.8 7.8 31.2 20.1c1 2.2 1.8 4.6 2.3 7.1 0.4 1.8-1 3.6-2.8 3.6h-62.1c-1.9 0-3.3-1.8-2.8-3.6z"/>
     <path class="cls-5" d="m944.3 141.4c-1.1 0-2.3 0.2-3.3 0.7l-2.1 3.8c-6.6 12.7-17.8 16.8-31.7 16.8s-31.3-11.8-34.6-28.9c-0.3-1.8 1-3.5 2.9-3.5h69c5.5-0.2 7.8-2.8 8-5.6-0.2-26.6-19.6-46.6-45.3-46.6s-46.2 20.5-46.2 47.6 19.8 47.8 46.2 47.8 33.7-9.9 42.3-27.9c-0.5-2.4-2.7-4.2-5.2-4.2zm-71.4-25.4c3.8-16.3 17.1-27.2 34.2-27.2s25.8 7.8 31.2 20.1c1 2.2 1.8 4.6 2.3 7.1 0.4 1.8-1 3.6-2.8 3.6h-62.1c-1.9 0-3.3-1.8-2.8-3.6z"/>
     <path class="cls-5" d="m1245.9 141.4c-1.1 0-2.3 0.2-3.3 0.7l-2.1 3.8c-6.6 12.7-17.8 16.8-31.7 16.8s-31.3-11.8-34.6-28.9c-0.3-1.8 1-3.5 2.9-3.5h69c5.5-0.2 7.8-2.8 8-5.6-0.2-26.6-19.6-46.6-45.3-46.6s-46.2 20.5-46.2 47.6 19.8 47.8 46.2 47.8 33.7-9.9 42.3-27.9c-0.5-2.4-2.7-4.2-5.2-4.2zm-71.4-25.4c3.8-16.3 17.1-27.2 34.2-27.2s25.8 7.8 31.2 20.1c1 2.2 1.8 4.6 2.3 7.1 0.4 1.8-1 3.6-2.8 3.6h-62.1c-1.9 0-3.3-1.8-2.8-3.6z"/>
    </g>
    <path class="cls-2" d="m68 184.2c-9.5 7.1-12.7 17.3-15.3 25.4-0.7 2.1-1.3 4.1-2 5.9 7-0.5 13.8-1.8 20-3.8 21-6.9 34.7-21.8 44.3-34.8h-4.5-8.8c-13 0-25 1-33.7 7.5z" fill="url(#a)"/>
    <path class="cls-3" d="m220.4 106c0-0.5 0-1-0.1-1.4v-0.8-0.1-0.6c-0.2-1.5-0.7-5.2-1.8-9.1-10.2 4.4-20.6 6.8-31.1 7.1h-0.1-0.8c-10.6 0-30-6-44.2-10.3-2.6-0.8-5-1.5-7.2-2.2l-1.2-0.3c-0.8-0.2-1.7-0.5-2.6-0.8-2.1-0.6-4.2-1.3-6.5-2h-0.3c-6.1-2-12.9-4.2-19.9-6-8.9-2.3-16.2-3.4-22.1-3.4-15.3 0-26.3 7.5-32.5 12v46.6c6.5-4.5 17.5-11 32.5-11s30 5.2 43.3 9.5c3.3 1 6.4 2 9.3 2.9 2.2 0.6 4.5 1.4 7 2.1 13.9 4.3 31.1 9.6 46 9.6 11.3 0 18.9-1 22.4-2.8 7.4-11.8 10.8-25.2 9.8-38.9z" fill="url(#c)"/>
    <path class="cls-4" d="m81 48.2c-19.9 0-30.9 17.3-30.9 29.3v6.6c5.4-3.7 17.3-11 33.8-11s13.9 1.1 23.2 3.5c7.1 1.8 14.1 4 20.2 5.9l0.7 0.2c2.1 0.7 4.2 1.3 6.1 1.9 0.9 0.3 1.7 0.5 2.6 0.8l1.2 0.3c1.6 0.5 3.3 1 5.1 1.5l5.5 1.7c13.3 4.1 29.9 9.2 39.2 9.2 9.7-0.2 19.8-2.4 30.1-6.7-8.4-22.7-21.4-36.2-38.8-40.1h-0.1c-7.1-2.1-26.4-3.2-34.3-3.2h-63.6z" fill="url(#d)"/>
    <path class="cls-1" d="m66.2 182.4c12-8.8 28.3-8.5 45.6-8.2h8.9 12 22.6c5.9 0 11.9-0.8 17.6-2.3 1.6-0.4 2.9-0.8 4.2-1.3 6.8-2.3 13.1-5.6 18.7-9.9 4.4-3.3 8.3-7.1 11.8-11.3-4.5 0.9-10.5 1.3-18.3 1.3-15.8 0-33.5-5.4-47.7-9.7-2.5-0.8-4.9-1.5-7.1-2.1-2.9-0.9-6.1-1.8-9.4-2.9-13.1-4.1-29.4-9.3-42.3-9.3s-26.5 7.6-32.7 12v68.5c2.6-8 6.5-17.8 16.1-24.9z" fill="url(#b)"/>
   </g>
  </g>
 </g>
</svg>
